<?xml version="1.0" encoding="UTF-8"?>
<svg version="1.1" xmlns="http://www.w3.org/2000/svg" width="1254" height="1254">
<path d="M0 0 C413.82 0 827.64 0 1254 0 C1254 413.82 1254 827.64 1254 1254 C840.18 1254 426.36 1254 0 1254 C0 840.18 0 426.36 0 0 Z " fill="#FCFCFC" transform="translate(0,0)"/>
<path d="M0 0 C413.82 0 827.64 0 1254 0 C1254 413.82 1254 827.64 1254 1254 C840.18 1254 426.36 1254 0 1254 C0 840.18 0 426.36 0 0 Z M119 120 C108.3321046 134.25728126 106.69328177 147.90754924 106.74273109 165.22621536 C106.74003449 166.86318183 106.73646483 168.50014705 106.73210663 170.13710994 C106.72267471 174.63104927 106.7256408 179.12490726 106.73066217 183.61885052 C106.73393406 188.5096808 106.72564189 193.40049389 106.71884382 198.29131866 C106.70854233 206.86185307 106.70570029 215.4323649 106.70775604 224.00290489 C106.7108056 236.74776908 106.70248307 249.49260827 106.69200679 262.2374676 C106.67266105 286.3238124 106.66703837 310.41014869 106.66589268 334.49650034 C106.66497377 353.09546449 106.66085805 371.69442524 106.65449142 390.29338837 C106.65269019 395.64605577 106.65091653 400.99872319 106.64914167 406.3513906 C106.64892049 407.01641942 106.64869931 407.68144824 106.64847143 408.36662945 C106.63582542 446.46971148 106.62757298 484.57279238 106.62848854 522.67587662 C106.6285201 524.10145954 106.62855157 525.52704247 106.62858296 526.95262539 C106.62872972 533.38886051 106.62890606 539.82509563 106.62909073 546.26133075 C106.62917297 549.13134981 106.62925327 552.00136886 106.62933335 554.87138792 C106.62937414 556.307883 106.62941618 557.74437807 106.62945947 559.18087315 C106.63081997 604.60480765 106.61618425 650.02871096 106.58837891 695.45263672 C106.58137673 706.8978741 106.57443776 718.34311152 106.56785011 729.78834915 C106.56744436 730.49310034 106.56703862 731.19785152 106.56662057 731.9239588 C106.55418858 753.64871125 106.54665907 775.37346115 106.54413414 797.09821701 C106.54405424 797.78039231 106.54397434 798.46256761 106.54389201 799.16541488 C106.54218538 814.14155662 106.5416631 829.1176982 106.54223277 844.09384001 C106.54242573 849.45269214 106.54252982 854.81154426 106.54259023 860.17039638 C106.54261396 862.16898233 106.54264928 864.16756827 106.54268462 866.16615421 C106.54274618 887.38789951 106.52997031 908.6096185 106.51274945 929.83135598 C106.49580311 951.15567421 106.49381135 972.47995389 106.5069681 993.80427513 C106.51436367 1006.47428199 106.51068105 1019.14417185 106.49108342 1031.81416634 C106.47909676 1040.27839358 106.4816599 1048.74253595 106.49602441 1057.20675927 C106.50379838 1062.02870737 106.50530748 1066.8504288 106.48910971 1071.67236105 C106.47448272 1076.06519417 106.4785053 1080.45761323 106.49695744 1084.85042835 C106.5003801 1086.42372177 106.49720902 1087.99704817 106.48635503 1089.57030787 C106.37129731 1107.45566949 110.12843938 1123.44175084 122.7265625 1136.73046875 C128.80517292 1143.30583173 128.80517292 1143.30583173 137 1146 C137 1146.66 137 1147.32 137 1148 C146.96388585 1151.77501518 155.94568638 1152.57026579 166.51027489 1152.49777794 C168.15370171 1152.50135002 169.79712548 1152.50667542 171.44054168 1152.51357967 C175.94312917 1152.52744653 180.44536208 1152.51653709 184.947933 1152.50146749 C189.85139719 1152.48948838 194.75481777 1152.50079662 199.65828192 1152.50910914 C208.24767703 1152.52046738 216.83696633 1152.51698824 225.42635727 1152.5037384 C238.19877371 1152.48409026 250.97111281 1152.48737117 263.74353827 1152.495239 C285.23165386 1152.50778675 306.71972554 1152.50144906 328.20783615 1152.48405075 C349.48750724 1152.46682482 370.76715336 1152.45698745 392.04683304 1152.45738602 C393.38363913 1152.45740186 394.72044523 1152.45741731 396.05725132 1152.45743235 C401.42934716 1152.4575071 406.801443 1152.45763995 412.17353883 1152.45784398 C427.18988407 1152.45839919 442.20622909 1152.45762188 457.22257423 1152.45586586 C458.24822775 1152.45574684 458.24822775 1152.45574684 459.29460153 1152.45562543 C481.07833366 1152.45301002 502.86205959 1152.44466921 524.64578819 1152.43214989 C525.3522093 1152.43174401 526.05863042 1152.43133813 526.78645823 1152.43091995 C538.2581201 1152.42430258 549.72978174 1152.41731193 561.20144338 1152.41030252 C606.71389003 1152.38251628 652.22631439 1152.36923673 697.73876953 1152.37060547 C699.17778586 1152.37064625 700.61680219 1152.37068667 702.05581853 1152.37072675 C704.93043789 1152.37080711 707.80505725 1152.37088865 710.67967661 1152.37097096 C717.12509303 1152.3711538 723.57050945 1152.37132251 730.01592586 1152.37146414 C731.44347131 1152.37149568 732.87101676 1152.37152856 734.29856221 1152.3715628 C772.42390649 1152.37245312 810.54924774 1152.36352011 848.67458975 1152.35085833 C849.67280129 1152.35052782 849.67280129 1152.35052782 850.69117871 1152.35019063 C856.71272087 1152.34819641 862.73426303 1152.34619964 868.75580517 1152.34414144 C883.39525033 1152.33917142 898.0346945 1152.33526779 912.67414045 1152.33451414 C913.99322038 1152.33444477 915.31230031 1152.33437541 916.67135236 1152.33430394 C919.32787746 1152.33417301 921.98440255 1152.33404451 924.64092765 1152.33391846 C948.63978761 1152.33272549 972.63862992 1152.32476062 996.63748233 1152.30505554 C1009.33580721 1152.29480966 1022.0341062 1152.2900121 1034.73243502 1152.29304791 C1043.20526169 1152.29451316 1051.67806309 1152.28873645 1060.15088166 1152.27696029 C1064.98421477 1152.27044048 1069.81749347 1152.26710858 1074.65082924 1152.27248149 C1079.04455758 1152.27729496 1083.43817695 1152.27297163 1087.83189141 1152.26124526 C1089.41451089 1152.25863715 1090.99714028 1152.25939861 1092.57975557 1152.26387847 C1094.72519175 1152.26946416 1096.8702558 1152.26275847 1099.01566923 1152.25299966 C1100.20460856 1152.25241667 1101.39354789 1152.25183367 1102.61851569 1152.251233 C1106.3087207 1151.97706308 1109.48328891 1151.12754391 1113 1150 C1113.80824219 1149.75121094 1114.61648438 1149.50242187 1115.44921875 1149.24609375 C1130.61169992 1143.7685482 1139.95388274 1132.63403132 1146.9921875 1118.58203125 C1150.41706297 1109.8074472 1150.28339012 1101.29236413 1150.25726891 1092.01240253 C1150.25996336 1090.3646839 1150.2635318 1088.71696651 1150.26789337 1087.06925145 C1150.27735423 1082.5314861 1150.27434979 1077.99380099 1150.26933783 1073.45603168 C1150.2660734 1068.52293749 1150.27435191 1063.58986054 1150.28115618 1058.65677184 C1150.29146976 1050.00743952 1150.29429762 1041.35812959 1150.29224396 1032.70879173 C1150.2891975 1019.84681535 1150.29751006 1006.9848638 1150.30799321 994.12289224 C1150.3273506 969.81600048 1150.33296332 945.50911705 1150.33410732 921.20221851 C1150.33423682 918.52122663 1150.3343727 915.84023475 1150.33451414 913.15924287 C1150.33454815 912.49394582 1150.33458216 911.82864877 1150.3346172 911.1431912 C1150.33543417 896.39924238 1150.33981419 881.65529529 1150.34482583 866.91134738 C1150.34688255 860.83998846 1150.34886261 854.76862951 1150.35085833 848.69727057 C1150.35107951 848.0264333 1150.35130069 847.35559603 1150.35152857 846.66443036 C1150.36417672 808.22218118 1150.3724268 769.77993313 1150.37151146 731.33768177 C1150.3714799 729.89905706 1150.37144843 728.46043235 1150.37141704 727.02180764 C1150.37127028 720.52655799 1150.37109394 714.03130833 1150.37090927 707.53605868 C1150.37082703 704.63967126 1150.37074673 701.74328384 1150.37066665 698.84689642 C1150.37062586 697.39720233 1150.37058382 695.94750823 1150.37054053 694.49781414 C1150.36918008 648.65827892 1150.38381396 602.81877461 1150.41162109 556.97924805 C1150.41862317 545.43017746 1150.4255621 533.88110685 1150.43214989 522.33203602 C1150.43255564 521.62090802 1150.43296138 520.90978003 1150.43337943 520.1771027 C1150.44581014 498.25810978 1150.45334069 476.3391194 1150.45586586 454.4201231 C1150.45594576 453.7319119 1150.45602566 453.04370071 1150.45610799 452.33463463 C1150.45781457 437.22641733 1150.45833692 422.11820019 1150.45776723 407.00998281 C1150.45757427 401.60391719 1150.45747018 396.19785156 1150.45740977 390.79178593 C1150.45739395 389.44690104 1150.45737354 388.10201615 1150.45734853 386.75713125 C1150.45698504 364.66914361 1150.46949445 342.58118462 1150.48725055 320.49320482 C1150.50419121 298.97475927 1150.50619314 277.45635191 1150.4930319 255.93790338 C1150.48563233 243.14973715 1150.48933081 230.36168682 1150.50891658 217.57353282 C1150.52089311 209.03299026 1150.51835143 200.49253186 1150.50397559 191.9519932 C1150.49619297 187.08476453 1150.49471728 182.21776058 1150.51089029 177.35054753 C1150.52548698 172.91893227 1150.52152992 168.48772808 1150.50304256 164.05613087 C1150.49961188 162.46654825 1150.50281762 160.87693313 1150.51364497 159.28738368 C1150.61945175 142.63293088 1146.80322599 128.97057435 1135.125 116.6875 C1124.43984352 106.6956552 1111.01492091 100.88039305 1096.29612637 100.87119883 C1095.63095055 100.86942382 1094.96577474 100.86764881 1094.28044208 100.86582002 C1092.0432591 100.86107511 1089.80614046 100.86345422 1087.56895447 100.86577892 C1085.94519851 100.86382601 1084.32144302 100.86143718 1082.69768828 100.85865095 C1078.21248771 100.8522402 1073.72730503 100.85209019 1069.24210075 100.85292836 C1064.37118465 100.85275907 1059.500275 100.84685533 1054.62936211 100.8416875 C1044.95802349 100.8323518 1035.28668944 100.82843782 1025.61534688 100.82616853 C1014.03525641 100.823209 1002.45517203 100.81451308 990.87508475 100.80575425 C962.88352477 100.78489903 934.89196372 100.77443851 906.90039778 100.76562465 C893.66223874 100.76141983 880.42408015 100.75619763 867.18592149 100.75094012 C822.59333581 100.73332977 778.00074983 100.71827648 733.40816117 100.71096988 C729.85337242 100.71038591 726.29858367 100.70978864 722.74379492 100.70919226 C722.03863807 100.70907414 721.33348123 100.70895602 720.606956 100.70883433 C713.46273263 100.70763694 706.31850926 100.70642818 699.17428589 100.70520179 C697.74184879 100.70495656 696.30941168 100.7047127 694.87697458 100.70447022 C648.87481122 100.69668092 602.87267338 100.67429859 556.87052117 100.6417938 C523.81754633 100.61844667 490.76457657 100.59689571 457.71159363 100.58978748 C456.6918616 100.58956695 456.6918616 100.58956695 455.65152893 100.58934197 C440.72730537 100.58615706 425.80308186 100.58410622 410.87885801 100.58311442 C404.87383868 100.58269968 398.86881936 100.58214459 392.86380005 100.58155251 C390.89314939 100.58136772 390.89314939 100.58136772 388.88268761 100.5811792 C367.72530374 100.57884554 346.56794977 100.56317635 325.41057656 100.54271066 C304.15053516 100.52247165 282.89052972 100.51696625 261.63048047 100.52648129 C248.99562988 100.53170368 236.3608989 100.52578391 223.72606549 100.50394662 C215.28761651 100.49046268 206.84925007 100.49149425 198.4108003 100.50434858 C193.60182577 100.51126116 188.79308028 100.51186028 183.98412597 100.49478849 C179.60533633 100.47937043 175.22695958 100.48252072 170.84818206 100.50019877 C169.27771336 100.50333696 167.70721297 100.4998375 166.13678058 100.48870702 C147.19147644 100.36322698 132.0571078 106.00085254 119 120 Z " fill="#3086FA" transform="translate(0,0)"/>
<path d="M0 0 C1.17556056 -0.00384115 2.35112113 -0.00768229 3.56230474 -0.01163983 C4.86004095 -0.01077335 6.15777716 -0.00990687 7.49483871 -0.00901413 C8.8824976 -0.01159717 10.27015573 -0.01461016 11.65781283 -0.01801753 C15.47985459 -0.02609798 19.30187759 -0.02787768 23.12392688 -0.028615 C27.24266105 -0.03046375 31.36138545 -0.03801019 35.48011398 -0.04475021 C44.49044822 -0.05834163 53.50077801 -0.06435955 62.5111208 -0.06876087 C68.13566622 -0.07152201 73.76020992 -0.07575914 79.38475418 -0.08026505 C94.95286705 -0.09245892 110.52097853 -0.1027579 126.08909607 -0.10614014 C127.08581476 -0.1063597 128.08253346 -0.10657927 129.10945575 -0.10680549 C130.60814318 -0.10713291 130.60814318 -0.10713291 132.13710713 -0.10746694 C134.16176685 -0.1079104 136.18642656 -0.10835697 138.21108627 -0.10880661 C139.21539077 -0.10902804 140.21969527 -0.10924947 141.25443324 -0.10947761 C157.5290146 -0.1134259 173.80355119 -0.13088035 190.07811525 -0.15416613 C206.78095911 -0.17787208 223.4837805 -0.19034165 240.18664145 -0.19150805 C249.56709082 -0.19242526 258.94748187 -0.19818893 268.32791519 -0.21632767 C276.31550004 -0.23171846 284.30300854 -0.23685517 292.2906054 -0.22858956 C296.36638728 -0.22467939 300.44201538 -0.22563049 304.5177784 -0.23964691 C308.24980124 -0.2523639 311.98155441 -0.25120784 315.71357676 -0.2390562 C317.70153965 -0.23616722 319.6895071 -0.24805168 321.67743325 -0.26047826 C330.41021462 -0.21195543 336.95254 0.69661196 343.3873558 7.13142776 C346.94095123 12.61566905 347.97341304 17.3556083 347.90493393 23.80720901 C347.91544785 25.04789642 347.91544785 25.04789642 347.92617416 26.31364822 C347.9436542 29.02409179 347.93216743 31.7334752 347.9186058 34.44392776 C347.9213036 36.3414721 347.92518841 38.23901509 347.93020248 40.13655472 C347.936084 44.10405578 347.92757811 48.07119544 347.90884018 52.03865433 C347.88605147 57.10934598 347.89918179 62.1791906 347.92313004 67.24985123 C347.93762449 71.16538686 347.93296533 75.0807236 347.92261887 78.99626541 C347.91996166 80.86526466 347.92318574 82.7342823 347.93253708 84.60326004 C347.94276308 87.22120468 347.92711825 89.83780156 347.90493393 92.45564651 C347.91303085 93.21847946 347.92112778 93.98131241 347.92947006 94.76726151 C347.8272658 101.31901077 345.71931718 106.47608893 341.3873558 111.40877151 C340.7273558 111.95662308 340.0673558 112.50447464 339.3873558 113.06892776 C338.7273558 113.6348262 338.0673558 114.20072464 337.3873558 114.78377151 C333.6254236 117.31866724 329.92505692 117.26155983 325.47646713 117.28914261 C324.28455261 117.29940475 323.09263809 117.3096669 321.86460495 117.32024002 C320.57918304 117.32754135 319.29376114 117.33484268 317.96938705 117.34236526 C316.62902132 117.3553416 315.28866349 117.36915908 313.94831467 117.38377762 C308.26848073 117.44515261 302.58866821 117.49927417 296.90859604 117.53279495 C293.42839557 117.55388045 289.94857878 117.58929485 286.46859932 117.63355255 C284.5140961 117.65438864 282.55944725 117.65973689 280.60483932 117.66472244 C273.02733844 117.76866795 265.35105035 117.90733564 259.2311058 122.88533401 C258.7876683 123.48216995 258.3442308 124.07900589 257.8873558 124.69392776 C257.4232933 125.29334183 256.9592308 125.89275589 256.4811058 126.51033401 C254.05920295 130.09994004 254.25952017 132.73008154 254.25427723 137.05325222 C254.25091269 138.13938122 254.25091269 138.13938122 254.24748018 139.24745223 C254.2411116 141.69887938 254.24190593 144.15025377 254.24259567 146.60168839 C254.2394639 148.3673604 254.23588955 150.13303167 254.23190826 151.89870197 C254.22217879 156.77121682 254.21865458 161.64371994 254.21606529 166.5162431 C254.21218004 171.76498105 254.20254136 177.01370856 254.19350815 182.26243973 C254.17854394 191.37002411 254.16700982 200.47760767 254.15756035 209.58519936 C254.14368642 222.78713205 254.12249511 235.9890456 254.09913182 249.19096456 C254.0611691 270.65296661 254.02622522 292.11497218 253.99453354 313.57698441 C253.99263305 314.86265798 253.99073255 316.14833155 253.98877447 317.47296492 C253.96202451 335.66056492 253.93813339 353.84816756 253.91538947 372.03577296 C253.91379217 373.31265398 253.91219487 374.58953501 253.91054916 375.90510941 C253.9089557 377.18042555 253.90736223 378.45574168 253.90572048 379.76970377 C253.87885346 401.11473487 253.84440546 422.45974598 253.80389541 443.80475551 C253.77924569 456.95152108 253.76084941 470.09826523 253.75073981 483.24505017 C253.74328818 492.28452643 253.72867212 501.32397394 253.70867557 510.36343106 C253.69740249 515.56210534 253.68914234 520.76073355 253.68968391 525.95942116 C253.68990493 585.43897002 253.68990493 585.43897002 248.8873558 610.19392776 C248.67466049 611.38695511 248.46196518 612.57998245 248.24282455 613.80916214 C247.27766312 619.08794386 246.14735028 624.0553809 244.3873558 629.13142776 C243.77138901 631.2321704 243.16793361 633.33660875 242.5748558 635.44392776 C242.05278549 637.27310745 242.05278549 637.27310745 241.5201683 639.13924026 C240.93964148 641.17769261 240.3635673 643.21710568 239.79653549 645.25935745 C239.18870737 647.44812786 238.56979219 649.63355995 237.9498558 651.81892776 C237.67854843 652.814366 237.67854843 652.814366 237.4017601 653.82991409 C235.66862489 659.88148763 233.06629022 665.44726287 230.3873558 671.13142776 C229.53958253 672.97903032 228.69192609 674.82668649 227.84438705 676.67439651 C211.03021469 712.77290522 185.73595033 745.55607177 153.3873558 769.13142776 C152.75426498 769.60354691 152.12117416 770.07566605 151.46889877 770.56209183 C134.93588438 782.87572206 117.14253624 792.7134148 98.39077377 801.21785355 C96.62236539 802.02426156 94.86523252 802.85529808 93.11001205 803.69002151 C88.08889366 806.063257 83.16518218 807.90199876 77.8170433 809.39314651 C75.43422014 810.11718764 73.232699 811.01508928 70.9498558 812.00642776 C56.96961324 817.72462962 41.50403569 820.34853676 26.8067894 823.59236526 C24.75367339 824.04981028 22.70476748 824.52608722 20.65688705 825.00642776 C-5.26115334 830.9517847 -32.18556931 832.4925439 -58.69394302 832.39216995 C-62.04528295 832.38144332 -65.39608582 832.39215141 -68.74740982 832.40486526 C-83.78801841 832.41419954 -98.64392394 831.56925778 -113.6126442 830.13142776 C-114.55186722 830.04199402 -115.49109024 829.95256027 -116.45877457 829.86041641 C-142.07287222 827.40131375 -142.07287222 827.40131375 -146.6126442 825.13142776 C-148.31778449 824.879601 -150.02710889 824.65603414 -151.7376442 824.44392776 C-166.08109913 822.30192952 -180.22366451 818.32633172 -194.0501442 814.00642776 C-194.78764908 813.77729691 -195.52515396 813.54816605 -196.28500748 813.31209183 C-200.84054649 811.84390668 -205.15378808 810.04390441 -209.50741959 808.05965042 C-212.32004018 806.81952709 -215.19621794 805.84875726 -218.1126442 804.88142776 C-246.49044715 794.8265392 -272.4383588 778.1425101 -295.6126442 759.13142776 C-296.1872438 758.66124222 -296.76184341 758.19105667 -297.35385513 757.70662308 C-310.3502168 747.00075237 -322.25182702 735.43148386 -332.6126442 722.13142776 C-333.49121893 721.04156717 -334.37151282 719.95309084 -335.2532692 718.86580276 C-345.39844921 706.28199762 -353.9356277 693.01869731 -361.67123795 678.83797073 C-362.88287698 676.64156077 -364.15910687 674.48431478 -365.4251442 672.31892776 C-367.65913593 668.30233304 -369.16142909 664.12736614 -370.6517067 659.78767776 C-371.49202672 657.46484194 -372.45459051 655.34006399 -373.5501442 653.13142776 C-377.95893908 643.51223892 -379.88730544 632.52566924 -382.12436295 622.22737503 C-382.55847691 620.36394083 -383.09068369 618.52397434 -383.6360817 616.69002151 C-395.34207321 574.03338842 -386.93942007 523.60109608 -365.4251442 485.63142776 C-360.51119703 477.18867854 -354.94178752 469.55646394 -348.6126442 462.13142776 C-347.85209732 461.21877151 -347.09155045 460.30611526 -346.3079567 459.36580276 C-340.9832914 453.18843306 -335.08861654 448.07166953 -328.6126442 443.13142776 C-327.83405045 442.52556839 -327.0554567 441.91970901 -326.2532692 441.29549026 C-306.92378527 426.96053742 -284.43421262 420.55503048 -260.60678482 420.68538284 C-258.2458706 420.69389809 -255.88738475 420.66498399 -253.5267067 420.63338089 C-239.34544809 420.5672257 -226.19907952 423.33244623 -212.9251442 428.38142776 C-212.13607681 428.67952347 -211.34700943 428.97761917 -210.53403091 429.28474808 C-184.6393641 439.39075178 -165.09904563 459.28615627 -153.96030045 484.63533401 C-152.40317543 488.67483225 -151.04918768 492.7374942 -149.8001442 496.88142776 C-149.5929274 497.56632278 -149.3857106 498.2512178 -149.17221451 498.95686722 C-143.40131929 519.22555529 -144.83988347 543.6331367 -151.40341568 563.52840042 C-153.77344486 571.09863976 -154.10619561 578.37901301 -154.05868912 586.23640823 C-154.05020896 588.36517111 -154.07899213 590.4912112 -154.11069107 592.61970901 C-154.17697535 605.25316354 -151.87485817 617.1159712 -145.8626442 628.38142776 C-145.51902847 629.04344193 -145.17541275 629.70545609 -144.82138443 630.38753128 C-136.60383117 645.82141006 -125.539245 656.4338369 -110.6126442 665.13142776 C-109.66776138 665.68830276 -108.72287857 666.24517776 -107.74936295 666.81892776 C-101.6150198 670.15073508 -95.26540625 672.3508783 -88.6126442 674.38142776 C-87.80617447 674.6278804 -86.99970474 674.87433304 -86.16879654 675.12825394 C-73.78562884 678.7258141 -61.73722418 679.57398358 -48.9251442 679.56892776 C-48.11305496 679.56966293 -47.30096573 679.5703981 -46.46426773 679.57115555 C-10.73140494 679.48655946 22.06950767 668.43760581 48.1998558 643.75642776 C59.307948 632.15372664 66.71198305 617.90614919 71.6998558 602.75642776 C71.94244125 602.03890335 72.1850267 601.32137894 72.43496323 600.58211136 C76.67917082 586.91483276 76.68141674 572.52645832 76.64805222 558.36053848 C76.65107954 556.51618072 76.65497192 554.67182421 76.65964478 552.82746989 C76.6698574 547.80341144 76.66776037 542.77942488 76.66346419 537.75536072 C76.66098486 532.32054841 76.67002567 526.88575287 76.67750168 521.45094681 C76.69021405 510.82408979 76.69204697 500.19725809 76.68970142 489.57039475 C76.68791541 480.9352498 76.68967393 472.30011252 76.69392586 463.66496849 C76.69481864 461.81869821 76.69481864 461.81869821 76.69572946 459.93512954 C76.69694124 457.4344892 76.69815537 454.93384887 76.69937184 452.43320853 C76.71023252 429.01699781 76.70809095 405.60080152 76.70198699 382.18458999 C76.69698952 362.09141397 76.70569304 341.99827749 76.72353745 321.90510941 C76.74424901 298.55639645 76.75495135 275.20770958 76.75096196 251.85898691 C76.74904827 239.50420262 76.7515545 227.149457 76.7656765 214.79467964 C76.77756756 204.28582224 76.77902022 193.77702738 76.76688633 183.26816916 C76.76098371 177.90626955 76.75993668 172.54448448 76.77188873 167.18259239 C76.78269898 162.27608615 76.77970236 157.36979075 76.76562705 152.46329457 C76.76296687 150.68707872 76.76538786 148.91084659 76.77336291 147.13464665 C76.78344473 144.72210889 76.77506817 142.31030759 76.76208591 139.89779949 C76.76939526 139.20682843 76.77670461 138.51585736 76.78423545 137.80394778 C76.71337858 131.45991792 75.11824203 126.94282033 70.6998558 122.31892776 C63.2825688 117.42071936 55.36664844 117.85793378 46.74830246 117.88759804 C44.62816161 117.89325442 42.50855511 117.88393194 40.38845444 117.87039566 C34.36641458 117.83352292 28.34456441 117.81472044 22.3224144 117.82600784 C18.6235359 117.83188637 14.9254191 117.81347576 11.22669601 117.78011894 C9.82662206 117.77221441 8.426464 117.77337429 7.02640915 117.78414345 C-0.98833189 117.84316939 -7.51165208 117.80407826 -13.6126442 112.13142776 C-19.21123835 105.77320924 -20.91365688 99.52288242 -20.90317154 91.06575394 C-20.90988876 90.27954163 -20.91660599 89.49332932 -20.92352676 88.68329239 C-20.94244722 86.09692858 -20.94642801 83.51082513 -20.9485817 80.92439651 C-20.95501406 79.11607128 -20.96174274 77.30774707 -20.96875381 75.49942398 C-20.98071191 71.71259017 -20.98443618 67.92584748 -20.98324966 64.13899612 C-20.98304663 59.30380615 -21.01033937 54.46920493 -21.04479408 49.63415432 C-21.06711164 45.89961476 -21.07108571 42.16521577 -21.07003021 38.43061638 C-21.07237922 36.64894776 -21.08116302 34.86727485 -21.09669495 33.08567238 C-21.25109885 13.54444202 -21.25109885 13.54444202 -14.57748795 5.75642776 C-13.90846451 5.22017776 -13.23944107 4.68392776 -12.5501442 4.13142776 C-11.87854263 3.57455276 -11.20694107 3.01767776 -10.51498795 2.44392776 C-7.04921162 0.0527556 -4.08618493 0.00499947 0 0 Z " fill="#3086FA" transform="translate(644.6126441955566,206.86857223510742)"/>
<path d="M0 0 C26.4 0 52.8 0 80 0 C80 0.33 80 0.66 80 1 C79.16339844 1.08636719 78.32679687 1.17273438 77.46484375 1.26171875 C53.48047712 4.15684163 33.45461759 14.90656038 18.28515625 33.8984375 C8.05297681 47.78621609 3.47746083 62.18146508 1 79 C0.67 79 0.34 79 0 79 C0 52.93 0 26.86 0 0 Z " fill="#000103" transform="translate(0,0)"/>
<path d="M0 0 C26.4 0 52.8 0 80 0 C80 26.07 80 52.14 80 79 C79.67 79 79.34 79 79 79 C78.84144531 77.76765625 78.68289063 76.5353125 78.51953125 75.265625 C75.54136997 53.52922985 66.3122654 34.05293737 49 20 C34.76984771 9.2456381 17.97533226 1.82835633 0 1 C0 0.67 0 0.34 0 0 Z " fill="#000104" transform="translate(1174,0)"/>
<path d="M0 0 C0.33 0 0.66 0 1 0 C1 25.74 1 51.48 1 78 C-23.42 78 -47.84 78 -73 78 C-73 77.67 -73 77.34 -73 77 C-71.47632813 76.65388672 -71.47632813 76.65388672 -69.921875 76.30078125 C-51.71701711 72.04328307 -37.62854943 64.99520892 -24 52 C-23.38511719 51.47148438 -22.77023437 50.94296875 -22.13671875 50.3984375 C-8.36388707 38.05038152 -1.62184755 17.89624887 0 0 Z " fill="#000104" transform="translate(1253,1176)"/>
<path d="M0 0 C0.33 0 0.66 0 1 0 C1.07476562 0.825 1.14953125 1.65 1.2265625 2.5 C3.86590911 25.68484866 15.34069809 47.05031486 33.5625 61.6875 C45.77546924 70.45376787 60.03596018 76.33732891 75 78 C75 78.33 75 78.66 75 79 C50.25 79 25.5 79 0 79 C0 52.93 0 26.86 0 0 Z " fill="#010103" transform="translate(0,1175)"/>
<path d="M0 0 C2.31 0 4.62 0 7 0 C7 0.66 7 1.32 7 2 C7.99 1.67 8.98 1.34 10 1 C15.63380282 4.26760563 15.63380282 4.26760563 17 7 C11.28062041 5.14506608 5.64444725 3.06896109 0 1 C0 0.67 0 0.34 0 0 Z " fill="#5195F7" transform="translate(1108,102)"/>
<path d="M0 0 C3.7952131 1.49097658 5.61042731 3.75700849 8 7 C4.21388773 6.45912682 2.44599233 4.88277668 0 2 C0 1.34 0 0.68 0 0 Z " fill="#4792FB" transform="translate(119,1134)"/>
<path d="M0 0 C0.66 0.66 1.32 1.32 2 2 C0.35 3.65 -1.3 5.3 -3 7 C-3.66 6.34 -4.32 5.68 -5 5 C-3.35 3.35 -1.7 1.7 0 0 Z " fill="#E4EEFD" transform="translate(1135,1132)"/>
<path d="M0 0 C0.33 0.99 0.66 1.98 1 3 C-2.96 3 -6.92 3 -11 3 C-11 2.67 -11 2.34 -11 2 C-9.5422647 1.664061 -8.08378894 1.33133376 -6.625 1 C-5.40683594 0.7215625 -5.40683594 0.7215625 -4.1640625 0.4375 C-2 0 -2 0 0 0 Z " fill="#031022" transform="translate(1191,1251)"/>
</svg>
